<svg width="23" height="23" viewBox="0 0 23 23" fill="none" xmlns="http://www.w3.org/2000/svg">
  <ellipse cx="11.5" cy="11.5" rx="11.5" ry="11.5" transform="rotate(90 11.5 11.5)" fill=""/>
  <g clip-path="url(#clip0)">
    <path
      d="M11.5 16.2053C11.733 16.2053 11.966 16.1163 12.1436 15.9388L17.7333 10.349C18.0889 9.99344 18.0889 9.41693 17.7333 9.0615C17.3779 8.70606 16.8015 8.70606 16.4459 9.0615L11.5 14.0076L6.55417 9.06167C6.19859 8.70623 5.62225 8.70623 5.26685 9.06167C4.9111 9.4171 4.9111 9.99361 5.26685 10.3492L10.8565 15.939C11.0342 16.1165 11.2671 16.2053 11.5 16.2053Z"
      fill="white"/>
  </g>
  <defs>
    <clipPath id="clip0">
      <rect width="13" height="13" fill="white" transform="matrix(-1 -8.74228e-08 -8.74228e-08 1 18 6)"/>
    </clipPath>
  </defs>
</svg>
